# xmcd CD database file
#
# Track frame offsets:
#	150
#	163889
#	263766
#	289251
#
# Disc length: 4409 seconds
#
# Revision: 1
# Processed by: cddbd v1.5.2PL0 Copyright (c) Steve Scherf et al.
# Submitted via: CDex 1.70beta2
#
DISCID=37113704
DTITLE=Don Conreaux - Syntonica
DYEAR=1997
DGENRE=New Age
TTITLE0=Gong bath
TTITLE1=true self
TTITLE2=on the frying pan
TTITLE3=we neet some dancers
EXTD=YEAR: 1997
EXTT0=
EXTT1=
EXTT2=
EXTT3=
PLAYORDER=
